<?xml version="1.0" encoding="utf-8"?>
<!-- Generator: Adobe Illustrator 19.0.0, SVG Export Plug-In . SVG Version: 6.00 Build 0)  -->
<svg version="1.1" id="layer" xmlns="http://www.w3.org/2000/svg" xmlns:xlink="http://www.w3.org/1999/xlink" x="0px" y="0px"
	 viewBox="-153 -46 652 652" style="enable-background:new -153 -46 652 652;" xml:space="preserve">
<style type="text/css">
	.st0{fill:#241C1D;}
	.st1{fill:#EC6F02;}
</style>
<path class="st0" d="M-85.3,263.7v4.8c-1.8-2.1-4-3.8-6.6-5.3c-2.6-1.5-5.4-2.4-8.2-2.9c-0.6-0.1-1.2-0.2-1.7-0.2
	c-0.6-0.1-1.2-0.1-1.7-0.1c-6.8,0-12.7,2.5-17.5,7.5c-4.9,5-7.3,10.9-7.3,17.6c0,3.2,0.6,6.2,1.9,9.1c1.3,2.9,3.1,5.5,5.3,7.7
	c2.2,2.1,4.8,3.8,7.7,5.2c2.9,1.4,6,2.2,9.1,2.3h0.4h0.3c0.9,0,1.9-0.1,2.9-0.2c1-0.1,2-0.4,3-0.7c2.3-0.6,4.6-1.6,6.9-2.9
	c2.2-1.3,4-2.8,5.5-4.6v4.7c-2.6,2.2-5.4,3.8-8.5,5c-3.1,1.2-6.3,1.8-9.7,1.8c-7.6,0-14.2-2.8-19.9-8.2c-5.7-5.5-8.5-12-8.5-19.7
	c0-7.8,2.8-14.4,8.4-19.9c5.6-5.5,12.3-8.2,20-8.2h0.4h0.4c3.1,0.1,6.2,0.8,9.3,2C-90.3,259.9-87.7,261.7-85.3,263.7L-85.3,263.7z"
	/>
<path class="st0" d="M-70.8,294l-7.3,17.9h-3.5l22.9-56.3l22.8,56.3h-3.5l-7.3-17.9H-70.8z M-58.8,264.4l-10.7,26.3h21.4
	L-58.8,264.4z"/>
<polygon class="st0" points="-28.7,260.6 -28.7,280.4 -10.7,280.4 -10.7,283.7 -28.7,283.7 -28.7,311.9 -32.1,311.9 -32.1,257.4 
	-10.2,257.4 -10.2,260.6 "/>
<path class="st0" d="M-2,260.6v19.8h22v3.3H-2v24.9h22.6v3.3h-26v-54.5h26v3.3H-2z M12.8,240.5l-9,10.5l-2.7-1.2l7.3-10.6
	L12.8,240.5z"/>
<polygon class="st0" points="39.4,257.4 77.8,257.4 77.8,267.7 53.9,267.7 53.9,279 76.5,279 76.5,289.2 53.9,289.2 53.9,301.6 
	78.7,301.6 78.7,311.9 39.4,311.9 "/>
<path class="st0" d="M84.9,257.4h19.8c18.9,0,32.2,5.9,32.2,27c0,20.4-13.7,27.5-32.2,27.5H84.9V257.4z M99.4,301.1h5.6
	c10.8,0,16.9-5.6,16.9-16.5c0-10.8-6.3-16.4-16.9-16.4h-5.6V301.1z"/>
<rect x="142.4" y="257.4" class="st0" width="14.5" height="54.5"/>
<polygon class="st0" points="175.9,268.2 162.4,268.2 162.4,257.4 203.8,257.4 203.8,268.2 190.4,268.2 190.4,311.9 175.9,311.9 "/>
<path class="st0" d="M233.9,256.5c17.9,0,27.3,10.7,27.3,28.2c0,17.3-9.5,28.2-27.3,28.2c-17.8,0-27.3-10.9-27.3-28.2
	C206.6,267.2,216,256.5,233.9,256.5 M233.9,302c8.8,0,12.3-8.4,12.3-17.4c0-9.4-3.5-17.4-12.3-17.4c-8.8,0-12.3,8-12.3,17.4
	C221.6,293.6,225.1,302,233.9,302"/>
<path class="st0" d="M266.3,257.4h25.9c9.7,0,17.5,4.4,17.5,13.7c0,7.3-3.4,12.1-10.5,13.7v0.2c4.7,1.3,5,5.4,7.7,12l5.3,14.8h-15.2
	l-3.1-9.8c-3-9.4-4.8-11.7-10.2-11.7h-3.1v21.5h-14.5V257.4z M280.8,280h3.8c4.7,0,10.6-0.2,10.6-6.3c0-5.1-5.1-6-10.6-6h-3.8V280z"
	/>
<path class="st0" d="M334.6,257.4h17.8l21,54.5h-15.9l-4.1-11.6H333l-4.3,11.6H314L334.6,257.4z M343.6,268.6h-0.2l-7,21.3H350
	L343.6,268.6z"/>
<path class="st1" d="M418.1,290.8c28.9,5.2,46.4-10.1,50-21.6c0.2-0.6-4.5-11.4-4.5-11.4c-1.2,11.7-17.6,30.4-48.5,27.2
	c-22.8-2.3-34.4,20.4-37.2,26.8h2.6C385.6,303.5,398.5,287.3,418.1,290.8 M417.6,300.1c-18.1-6.3-31,7.9-34.1,11.8h2.9
	c5.7-5,18.2-13.2,32.6-7.1c21.5,9.1,38.6,2.7,44.4-6.5c-0.3-0.9-2.8-7.9-2.8-7.9C457.9,298.4,441.8,308.4,417.6,300.1"/>
</svg>
