<svg width="1440" height="745" viewBox="0 0 1440 745" fill="none" xmlns="http://www.w3.org/2000/svg">
<rect x="-1" width="1441" height="745" fill="#242424"/>
<g clip-path="url(#clip0_1846_274)">
<path d="M1069.24 249.302L1072.51 249.356L1073.43 194.189L1070.17 194.135L1069.24 249.302Z" fill="#F2F2F2"/>
<path d="M1072.95 222.444L1073.41 194.934C1073.41 194.934 1079.77 185.868 1094.09 195.28C1108.4 204.691 1115.78 195.97 1115.83 195.645C1115.89 195.321 1113.95 216.008 1103.18 218.872C1092.4 221.737 1083.9 209.713 1072.95 222.444Z" fill="#FFD000"/>
<g opacity="0.89">
<path opacity="0.89" d="M665.768 555.739L907.115 347.62L973.519 339.837L1071.07 247.814L1223.11 323.813L1276.69 340.752L1314.04 386.077L1362.33 393.404L1495.19 513.938L665.768 555.739Z" fill="#666666"/>
<path opacity="0.38" d="M1071.07 247.814L1152.58 366.346L1170.9 342.125L1318.37 451.584L1398.05 427.74L1362.33 393.404L1314.04 386.077L1278.98 339.837L1223.11 323.813L1071.07 247.814Z" fill="#4C4C4C"/>
</g>
<path d="M1530 538.02L1439.42 451.584L1214.57 480.526L1025.42 442.849L860.753 541.999L904.518 607.666L1530 617.26V538.02Z" fill="#4D4D4D"/>
<path d="M953.29 581.015L661.033 451.584L465 555.487L706.83 750.505L816.408 761H1159.98L1280.36 730.446L1224.45 592.605L953.29 581.015Z" fill="#3D3D3D"/>
<path d="M1440 554.828L1299.96 498.704L745.901 720.559L792.496 761H1440V554.828Z" fill="#303030"/>
</g>
<g clip-path="url(#clip1_1846_274)">
<path d="M713.112 634.588L653.746 656.78C517.408 566.291 287.485 456 287.485 456L264.845 456.209L-1.00391 547.079V745.011H1014.99C901.083 705.029 713.112 634.588 713.112 634.588Z" fill="#333333"/>
</g>
<defs>
<clipPath id="clip0_1846_274">
<rect width="1045" height="570" fill="white" transform="translate(395 191)"/>
</clipPath>
<clipPath id="clip1_1846_274">
<rect width="1016" height="289" fill="white" transform="translate(-1 456)"/>
</clipPath>
</defs>
</svg>
